{"title":"Life of Pi 2012 DVDSCR Xvid Ac3-ADTRG","uid":8037477,"size":2009384429,"categoryP":"video","categoryS":"movies","magnet":"?xt=urn:btih:e0363aa336d1b6e8fbf0898c9000bfd6b0bb1e57&amp;dn=Life+of+Pi+2012+DVDSCR+Xvid+Ac3-ADTRG&amp;tr=udp%3A%2F%2Ftracker.openbittorrent.com%3A80&amp;tr=udp%3A%2F%2Fopen.demonii.com%3A1337&amp;tr=udp%3A%2F%2Ftracker.coppersurfer.tk%3A6969&amp;tr=udp%3A%2F%2Fexodus.desync.com%3A6969","seeders":1,"leechers":0,"uploader":"juggs99","files":8,"time":1358545667,"description":"]General &lt;a href=&quot;\nhttp://www.imdb.com/title/tt0454876/&quot; rel=&quot;nofollow&quot; target=&quot;_NEW&quot;&gt;\nhttp://www.imdb.com/title/tt0454876/&lt;/a&gt;\nComplete name                            : Life of Pi 2012 DVDSCR Xvid Ac3-ADTRG.avi\nSource                                   : DVDSCR [Thanks]\nFormat                                   : AVI\nFormat/Info                              : Audio Video Interleave\nFile size                                : 1.85 GiB\nDuration                                 : 2h 6mn\nOverall bit rate                         : 2 090 Kbps\nWriting application                      : VirtualDubMod 1.5.10.2 (build 2540/release)\nWriting library                          : VirtualDubMod build 2540/release\n\nVideo\nID                                       : 0\nFormat                                   : MPEG-4 Visual\nFormat profile                           : Advanced Simple@L5\nFormat settings, BVOP                    : 2\nFormat settings, QPel                    : No\nFormat settings, GMC                     : No warppoints\nFormat settings, Matrix                  : Default (H.263)\nMuxing mode                              : Packed bitstream\nCodec ID                                 : XVID\nCodec ID/Hint                            : XviD\nDuration                                 : 2h 6mn\nBit rate                                 : 1 696 Kbps\nWidth                                    : 720 pixels\nHeight                                   : 384 pixels\nDisplay aspect ratio                     : 1.875\nFrame rate                               : 23.976 fps\nColor space                              : YUV\nChroma subsampling                       : 4:2:0\nBit depth                                : 8 bits\nScan type                                : Progressive\nCompression mode                         : Lossy\nBits/(Pixel*Frame)                       : 0.256\nStream size                              : 1.50 GiB (81%)\nWriting library                          : XviD 64\n\nAudio\nID                                       : 1\nFormat                                   : AC-3\nFormat/Info                              : Audio Coding 3\nMode extension                           : CM (complete main)\nCodec ID                                 : 2000\nDuration                                 : 2h 6mn\nBit rate mode                            : Constant\nBit rate                                 : 384 Kbps\nChannel(s)                               : 2 channels\nChannel positions                        : Front: L R\nSampling rate                            : 48.0 KHz\nBit depth                                : 16 bits\nCompression mode                         : Lossy\nStream size                              : 349 MiB (18%)\nAlignment                                : Split accross interleaves\nInterleave, duration                     : 42 ms (1.00 video frame)\nInterleave, preload duration             : 500 ms\n\nNotes :\n\nadded some filters and altered a/r to what i think looks right \n\nenjoy until better arrives \n\nScreens :\n\n &lt;a href=&quot;\nhttp://www.shotpix.com/images/23673706980771161371.jpeg&quot; rel=&quot;nofollow&quot; target=&quot;_NEW&quot;&gt;\nhttp://www.shotpix.com/images/23673706980771161371.jpeg&lt;/a&gt; &lt;a href=&quot;\nhttp://www.shotpix.com/images/16146583868547163219.jpeg&quot; rel=&quot;nofollow&quot; target=&quot;_NEW&quot;&gt;\nhttp://www.shotpix.com/images/16146583868547163219.jpeg&lt;/a&gt; &lt;a href=&quot;\nhttp://www.shotpix.com/images/90514081127230146470.jpeg&quot; rel=&quot;nofollow&quot; target=&quot;_NEW&quot;&gt;\nhttp://www.shotpix.com/images/90514081127230146470.jpeg&lt;/a&gt; &lt;a href=&quot;\nhttp://www.shotpix.com/images/10286974702235902695.jpeg&quot; rel=&quot;nofollow&quot; target=&quot;_NEW&quot;&gt;\nhttp://www.shotpix.com/images/10286974702235902695.jpeg&lt;/a&gt;","torrent":{"xt":"urn:btih:e0363aa336d1b6e8fbf0898c9000bfd6b0bb1e57","amp;dn":"Life+of+Pi+2012+DVDSCR+Xvid+Ac3-ADTRG","amp;tr":["udp%3A%2F%2Ftracker.openbittorrent.com%3A80","udp%3A%2F%2Fopen.demonii.com%3A1337","udp%3A%2F%2Ftracker.coppersurfer.tk%3A6969","udp%3A%2F%2Fexodus.desync.com%3A6969"],"infoHash":"e0363aa336d1b6e8fbf0898c9000bfd6b0bb1e57","infoHashBuffer":{"type":"Buffer","data":[224,54,58,163,54,209,182,232,251,240,137,140,144,0,191,214,176,187,30,87]},"announce":[],"urlList":[]}}